# xmcd
# Copyright (C) 1995-1998 Ti Kan
#
# Track frame offsets:
#       150
#       27342
#       42200
#       55144
#       66828
#       80545
#       87762
#       106760
#       134869
#       162633
#       177663
#       204003
#       222231
#       235027
#       251379
#       270176
#
# Disc length: 3851 seconds
#
# Revision: 0
# Processed by: cddbd v1.5.2PL0 Copyright (c) Steve Scherf et al.
# Submitted via: CD-Transfer v1.0
#
DISCID=d80f0910
DTITLE=Itunes_October 20th - 
DYEAR=5
DGENRE=
TTITLE0=So Weit Wie Noch Nie
TTITLE1=Nick Northern
TTITLE2=Closer To Grey
TTITLE3=Nothing
TTITLE4=Bro Hymn
TTITLE5=This Might Be Satire
TTITLE6=Haile Selassie, Up Your Ass
TTITLE7=Song For The Deaf
TTITLE8=Mosquito Song
TTITLE9=First It Giveth
TTITLE10=Better Living Through Chemistry
TTITLE11=Auto Pilot
TTITLE12=Leg Of Lamb
TTITLE13=
TTITLE14=One Way
TTITLE15=Age Of Panic
EXTD=
EXTT0=
EXTT1=
EXTT2=
EXTT3=
EXTT4=
EXTT5=
EXTT6=
EXTT7=
EXTT8=
EXTT9=
EXTT10=
EXTT11=
EXTT12=
EXTT13=
EXTT14=
EXTT15=
PLAYORDER=
